<?xml version="1.0" standalone="no"?>
<!DOCTYPE svg PUBLIC "-//W3C//DTD SVG 20010904//EN"
 "http://www.w3.org/TR/2001/REC-SVG-20010904/DTD/svg10.dtd">
<svg version="1.0" xmlns="http://www.w3.org/2000/svg"
 width="413.000000pt" height="67.000000pt" viewBox="0 0 413.000000 67.000000"
 preserveAspectRatio="xMidYMid meet">

<g transform="translate(0.000000,67.000000) scale(0.100000,-0.100000)"
fill="#000000" stroke="none">
<path d="M1140 479 l0 -80 -26 20 c-54 42 -133 17 -165 -52 -49 -108 1 -227
96 -227 31 0 81 24 88 42 3 7 6 3 6 -9 1 -19 7 -23 36 -23 l35 0 0 205 0 205
-35 0 -35 0 0 -81z m-20 -111 c28 -31 28 -115 -1 -152 -40 -51 -104 -26 -116
47 -15 97 61 165 117 105z"/>
<path d="M3800 479 l0 -80 -26 20 c-54 42 -133 17 -165 -52 -49 -108 1 -227
96 -227 31 0 81 24 88 42 3 7 6 3 6 -9 1 -19 7 -23 36 -23 l35 0 0 205 0 205
-35 0 -35 0 0 -81z m-20 -111 c28 -31 28 -115 -1 -152 -40 -51 -104 -26 -116
47 -15 97 61 165 117 105z"/>
<path d="M382 539 c-45 -13 -105 -76 -120 -125 -23 -77 -8 -168 35 -216 44
-50 135 -70 216 -47 34 9 37 13 37 45 l0 35 -30 -16 c-67 -35 -158 -5 -186 60
-53 127 58 251 185 207 31 -11 31 -10 31 22 0 29 -4 34 -31 40 -43 8 -97 6
-137 -5z"/>
<path d="M1750 345 l0 -195 79 0 c88 0 131 11 180 48 87 64 95 221 16 291 -44
39 -90 51 -192 51 l-83 0 0 -195z m196 120 c61 -25 84 -127 44 -192 -25 -41
-68 -63 -125 -63 l-45 0 0 135 0 135 45 0 c25 0 61 -7 81 -15z"/>
<path d="M681 422 c-50 -25 -74 -63 -78 -124 -5 -65 18 -113 68 -140 101 -54
219 19 219 137 0 112 -109 179 -209 127z m110 -51 c21 -16 24 -28 24 -81 0
-53 -3 -65 -24 -81 -48 -39 -107 -12 -118 53 -15 98 54 161 118 109z"/>
<path d="M1339 417 c-92 -61 -91 -213 1 -259 40 -20 102 -23 149 -7 25 9 31
16 31 39 0 28 -1 29 -27 14 -54 -27 -122 -12 -142 33 -6 13 -11 28 -11 33 0 6
43 10 100 10 l100 0 0 31 c0 104 -114 164 -201 106z m115 -49 c29 -41 21 -48
-49 -48 -36 0 -65 4 -65 9 0 4 9 20 21 35 26 33 71 35 93 4z"/>
<path d="M2590 433 c-8 -3 -23 -12 -32 -21 -16 -14 -18 -13 -18 1 0 13 -9 17
-35 17 l-35 0 0 -140 0 -140 35 0 35 0 0 90 c0 101 12 138 48 147 19 4 30 0
44 -17 15 -18 18 -40 18 -121 l0 -99 35 0 35 0 0 90 c0 101 12 138 48 147 19
4 30 0 44 -17 15 -18 18 -40 18 -121 l0 -99 36 0 36 0 -4 121 c-3 118 -4 121
-31 145 -37 32 -87 32 -124 0 l-28 -24 -28 24 c-27 23 -64 29 -97 17z"/>
<path d="M3071 414 c-30 -25 -31 -25 -31 -5 0 17 -6 21 -35 21 l-35 0 0 -205
0 -205 35 0 35 0 0 81 0 80 26 -20 c79 -62 183 17 184 137 0 117 -101 182
-179 116z m88 -50 c25 -32 28 -92 6 -133 -23 -46 -65 -54 -102 -19 -34 32 -33
119 2 153 32 33 68 32 94 -1z"/>
<path d="M3359 417 c-92 -61 -91 -213 1 -259 40 -20 102 -23 149 -7 25 9 31
16 31 39 0 28 -1 29 -27 14 -54 -27 -122 -12 -142 33 -6 13 -11 28 -11 33 0 6
43 10 100 10 l100 0 0 31 c0 104 -114 164 -201 106z m115 -49 c29 -41 21 -48
-49 -48 -36 0 -65 4 -65 9 0 4 9 20 21 35 26 33 71 35 93 4z"/>
<path d="M2140 325 c0 -112 12 -155 49 -175 32 -17 86 -12 115 11 21 17 26 18
26 5 0 -12 10 -16 35 -16 l35 0 0 140 0 140 -35 0 -35 0 0 -100 c0 -87 -3
-103 -20 -120 -27 -27 -65 -26 -84 2 -12 17 -16 48 -16 120 l0 98 -35 0 -35 0
0 -105z"/>
</g>
</svg>
